<svg id="svg" version="1.1" xmlns="http://www.w3.org/2000/svg" xmlns:xlink="http://www.w3.org/1999/xlink" width="30" height="30" viewBox="0, 0, 400,400"><g id="svgg"><path id="path0" d="M141.948 22.984 C -16.943 79.597,-28.951 297.237,122.850 369.140 C 163.728 388.503,236.272 388.503,277.150 369.140 C 418.665 302.109,420.632 102.126,280.457 32.848 C 243.213 14.440,178.801 9.854,141.948 22.984 M272.970 53.089 C 320.248 76.474,357.700 126.879,363.048 174.322 L 365.040 192.000 322.520 192.000 C 281.604 192.000,280.000 191.674,280.000 183.351 C 280.000 168.195,260.685 140.738,242.542 130.106 C 195.552 102.568,120.000 135.396,120.000 183.351 C 120.000 191.667,118.383 192.000,78.000 192.000 L 36.000 192.000 36.000 180.713 C 36.000 76.776,172.370 3.332,272.970 53.089 M231.037 147.978 C 258.861 164.943,268.664 203.742,252.022 231.037 C 220.298 283.068,140.030 260.823,140.030 200.000 C 140.030 153.455,191.636 123.956,231.037 147.978 M169.818 169.818 C 143.473 196.163,162.326 240.000,200.000 240.000 C 228.412 240.000,240.000 228.412,240.000 200.000 C 240.000 171.588,228.412 160.000,200.000 160.000 C 183.713 160.000,177.671 161.965,169.818 169.818 M215.200 184.800 C 217.840 187.440,220.000 194.280,220.000 200.000 C 220.000 205.720,217.840 212.560,215.200 215.200 C 202.612 227.788,180.000 218.024,180.000 200.000 C 180.000 194.280,182.160 187.440,184.800 184.800 C 187.440 182.160,194.280 180.000,200.000 180.000 C 205.720 180.000,212.560 182.160,215.200 184.800 M120.000 216.649 C 120.000 231.805,139.315 259.262,157.458 269.894 C 204.448 297.432,280.000 264.604,280.000 216.649 C 280.000 208.326,281.604 208.000,322.520 208.000 L 365.040 208.000 363.048 225.678 C 342.833 405.020,57.167 405.020,36.952 225.678 L 34.960 208.000 77.480 208.000 C 118.396 208.000,120.000 208.326,120.000 216.649 " stroke="none" fill="#fff" fill-rule="evenodd"></path></g></svg>
